<mxfile host="65bd71144e">
    <diagram id="RsK1eqZ9NettlzY5w-oZ" name="Page-1">
        <mxGraphModel dx="1057" dy="431" grid="1" gridSize="10" guides="1" tooltips="1" connect="1" arrows="1" fold="1" page="1" pageScale="1" pageWidth="850" pageHeight="1100" background="none" math="0" shadow="0">
            <root>
                <mxCell id="0"/>
                <mxCell id="1" parent="0"/>
                <mxCell id="54" value="" style="strokeWidth=1;shadow=0;dashed=0;align=center;html=1;shape=mxgraph.mockup.containers.browserWindow;rSize=0;strokeColor=#666666;strokeColor2=#008cff;strokeColor3=#c4c4c4;mainText=,;recursiveResize=0;" parent="1" vertex="1">
                    <mxGeometry x="35" y="190" width="780" height="810" as="geometry"/>
                </mxCell>
                <mxCell id="55" value="Page 1" style="strokeWidth=1;shadow=0;dashed=0;align=center;html=1;shape=mxgraph.mockup.containers.anchor;fontSize=17;fontColor=#666666;align=left;" parent="54" vertex="1">
                    <mxGeometry x="60" y="12" width="110" height="26" as="geometry"/>
                </mxCell>
                <mxCell id="56" value="https://www.aumadeco.com/" style="strokeWidth=1;shadow=0;dashed=0;align=center;html=1;shape=mxgraph.mockup.containers.anchor;rSize=0;fontSize=17;fontColor=#666666;align=left;" parent="54" vertex="1">
                    <mxGeometry x="130" y="60" width="250" height="26" as="geometry"/>
                </mxCell>
                <mxCell id="19" value="" style="whiteSpace=wrap;html=1;fillColor=#f8cecc;strokeColor=#b85450;shadow=0;" parent="1" vertex="1">
                    <mxGeometry x="46" y="370" width="760" height="220" as="geometry"/>
                </mxCell>
                <mxCell id="2" value="" style="whiteSpace=wrap;html=1;fillColor=#f9f7ed;strokeColor=#36393d;" parent="1" vertex="1">
                    <mxGeometry x="35" y="300" width="780" height="700" as="geometry"/>
                </mxCell>
                <mxCell id="7" value="" style="whiteSpace=wrap;html=1;fillColor=#eeeeee;strokeColor=#36393d;" parent="1" vertex="1">
                    <mxGeometry x="45" y="310" width="760" height="60" as="geometry"/>
                </mxCell>
                <mxCell id="24" value="" style="triangle;whiteSpace=wrap;html=1;shadow=0;fontFamily=Helvetica;fontSize=23;fontColor=#000000;align=center;strokeColor=default;fillColor=default;rotation=-90;" parent="1" vertex="1">
                    <mxGeometry x="403" y="319" width="30" height="40" as="geometry"/>
                </mxCell>
                <mxCell id="25" value="&lt;font&gt;Logo&lt;/font&gt;" style="text;strokeColor=none;align=center;fillColor=none;html=1;verticalAlign=middle;whiteSpace=wrap;rounded=0;shadow=0;fontSize=23;fontColor=#990000;" parent="1" vertex="1">
                    <mxGeometry x="388" y="325" width="60" height="30" as="geometry"/>
                </mxCell>
                <mxCell id="26" value="" style="html=1;verticalLabelPosition=bottom;align=center;labelBackgroundColor=#ffffff;verticalAlign=top;strokeWidth=2;strokeColor=#0080F0;shadow=0;dashed=0;shape=mxgraph.ios7.icons.shopping_cart;fontSize=23;fontColor=#990000;" parent="1" vertex="1">
                    <mxGeometry x="752" y="326" width="30" height="25.5" as="geometry"/>
                </mxCell>
                <mxCell id="28" value="" style="verticalLabelPosition=bottom;shadow=0;dashed=0;align=center;html=1;verticalAlign=top;strokeWidth=1;shape=mxgraph.mockup.graphics.simpleIcon;strokeColor=default;fontFamily=Helvetica;fontSize=23;fontColor=#990000;fillColor=default;" parent="1" vertex="1">
                    <mxGeometry x="63" y="520" width="210" height="210" as="geometry"/>
                </mxCell>
                <mxCell id="29" value="" style="verticalLabelPosition=bottom;shadow=0;dashed=0;align=center;html=1;verticalAlign=top;strokeWidth=1;shape=mxgraph.mockup.graphics.simpleIcon;strokeColor=default;fontFamily=Helvetica;fontSize=23;fontColor=#990000;fillColor=default;" parent="1" vertex="1">
                    <mxGeometry x="315" y="520" width="210" height="210" as="geometry"/>
                </mxCell>
                <mxCell id="30" value="" style="verticalLabelPosition=bottom;shadow=0;dashed=0;align=center;html=1;verticalAlign=top;strokeWidth=1;shape=mxgraph.mockup.graphics.simpleIcon;strokeColor=default;fontFamily=Helvetica;fontSize=23;fontColor=#990000;fillColor=default;" parent="1" vertex="1">
                    <mxGeometry x="579" y="520" width="210" height="210" as="geometry"/>
                </mxCell>
                <mxCell id="41" value="" style="verticalLabelPosition=bottom;shadow=0;dashed=0;align=center;html=1;verticalAlign=top;strokeWidth=1;shape=mxgraph.mockup.graphics.simpleIcon;strokeColor=default;fontFamily=Helvetica;fontSize=23;fontColor=#990000;fillColor=default;" parent="1" vertex="1">
                    <mxGeometry x="315" y="760" width="210" height="210" as="geometry"/>
                </mxCell>
                <mxCell id="42" value="" style="verticalLabelPosition=bottom;shadow=0;dashed=0;align=center;html=1;verticalAlign=top;strokeWidth=1;shape=mxgraph.mockup.graphics.simpleIcon;strokeColor=default;fontFamily=Helvetica;fontSize=23;fontColor=#990000;fillColor=default;" parent="1" vertex="1">
                    <mxGeometry x="579" y="760" width="210" height="210" as="geometry"/>
                </mxCell>
                <mxCell id="43" value="" style="verticalLabelPosition=bottom;shadow=0;dashed=0;align=center;html=1;verticalAlign=top;strokeWidth=1;shape=mxgraph.mockup.graphics.simpleIcon;strokeColor=default;fontFamily=Helvetica;fontSize=23;fontColor=#990000;fillColor=default;" parent="1" vertex="1">
                    <mxGeometry x="63" y="760" width="210" height="210" as="geometry"/>
                </mxCell>
                <mxCell id="44" value="lista 1" style="text;html=1;strokeColor=none;fillColor=none;align=center;verticalAlign=middle;whiteSpace=wrap;rounded=0;shadow=0;fontSize=23;fontColor=#990000;" parent="1" vertex="1">
                    <mxGeometry x="138" y="610" width="60" height="30" as="geometry"/>
                </mxCell>
                <mxCell id="45" value="lista 2" style="text;html=1;strokeColor=none;fillColor=none;align=center;verticalAlign=middle;whiteSpace=wrap;rounded=0;shadow=0;fontSize=23;fontColor=#990000;" parent="1" vertex="1">
                    <mxGeometry x="390" y="610" width="60" height="30" as="geometry"/>
                </mxCell>
                <mxCell id="46" value="lista 3" style="text;html=1;strokeColor=none;fillColor=none;align=center;verticalAlign=middle;whiteSpace=wrap;rounded=0;shadow=0;fontSize=23;fontColor=#990000;" parent="1" vertex="1">
                    <mxGeometry x="654" y="610" width="60" height="30" as="geometry"/>
                </mxCell>
                <mxCell id="47" value="lista 6" style="text;html=1;strokeColor=none;fillColor=none;align=center;verticalAlign=middle;whiteSpace=wrap;rounded=0;shadow=0;fontSize=23;fontColor=#990000;" parent="1" vertex="1">
                    <mxGeometry x="654" y="850" width="60" height="30" as="geometry"/>
                </mxCell>
                <mxCell id="49" value="lista 5" style="text;html=1;strokeColor=none;fillColor=none;align=center;verticalAlign=middle;whiteSpace=wrap;rounded=0;shadow=0;fontSize=23;fontColor=#990000;" parent="1" vertex="1">
                    <mxGeometry x="390" y="850" width="60" height="30" as="geometry"/>
                </mxCell>
                <mxCell id="50" value="lista 4" style="text;html=1;strokeColor=none;fillColor=none;align=center;verticalAlign=middle;whiteSpace=wrap;rounded=0;shadow=0;fontSize=23;fontColor=#990000;" parent="1" vertex="1">
                    <mxGeometry x="138" y="850" width="60" height="30" as="geometry"/>
                </mxCell>
                <mxCell id="52" value="" style="rounded=0;whiteSpace=wrap;html=1;shadow=0;fontSize=23;fontColor=#FF0000;fillColor=#CC0000;" parent="1" vertex="1">
                    <mxGeometry x="45" y="380" width="760" height="130" as="geometry"/>
                </mxCell>
                <mxCell id="53" value="&lt;font color=&quot;#000000&quot; style=&quot;font-size: 69px;&quot;&gt;Imagen&amp;nbsp; auma tienda&lt;/font&gt;" style="text;strokeColor=none;align=center;fillColor=none;html=1;verticalAlign=middle;whiteSpace=wrap;rounded=0;shadow=0;fontSize=23;fontColor=#FF0000;" parent="1" vertex="1">
                    <mxGeometry x="65" y="430" width="720" height="30" as="geometry"/>
                </mxCell>
            </root>
        </mxGraphModel>
    </diagram>
</mxfile>